{"title":"Baar Baar Dekho (2016) 1CD x264 DesiSCR Rip AAC 2.0 -DDR","uid":15794950,"size":737554778,"categoryP":"video","categoryS":"movies","magnet":"?xt=urn:btih:9d71234b017bd36ba5141da1b8ec96ef8672f960&amp;dn=Baar+Baar+Dekho+%282016%29+1CD+x264+DesiSCR+Rip+AAC+2.0+-DDR&amp;tr=udp%3A%2F%2Ftracker.leechers-paradise.org%3A6969&amp;tr=udp%3A%2F%2Fzer0day.ch%3A1337&amp;tr=udp%3A%2F%2Fopen.demonii.com%3A1337&amp;tr=udp%3A%2F%2Ftracker.coppersurfer.tk%3A6969&amp;tr=udp%3A%2F%2Fexodus.desync.com%3A6969","seeders":246,"leechers":90,"uploader":"SaM","files":3,"time":1473445001,"description":"Baar Baar Dekho\r\n\r\n1CD x264 DesiSCR Rip\r\n\r\nHindi AAC Stereo Audio\r\n \nhttp://extraimago.com/image/wi1o \nhttp://extraimago.com/image/wi1k \nhttp://extraimago.com/image/wi1H \nhttp://extraimago.com/image/wi1F \nhttp://extraimago.com/image/wi1D \nhttp://extraimago.com/image/wi15 \nhttp://extraimago.com/image/wi1g \nhttp://extraimago.com/image/wi1X \nhttp://extraimago.com/image/wi1P \nhttp://extraimago.com/image/wi1G \nhttp://extraimago.com/image/wi1r \nhttp://extraimago.com/image/wi1p \nhttp://extraimago.com/image/wi1Y \nhttp://extraimago.com/image/wi1C \nhttp://extraimago.com/image/wi1B\r\n\r\nSpecs:\r\nSource: DesiSCR @ ICTV\r\n\r\nFormat : Matroska\r\nFile size : 700 MiB\r\nDuration : 2 h 20 min\r\nOverall bit rate mode : Variable\r\nOverall bit rate : 696 kb/s\r\n\r\nVideo\r\nFormat : AVC\r\nFormat/Info : Advanced Video Codec\r\nFormat profile :   \r\nFormat settings, CABAC : Yes\r\nFormat settings, ReFrames : 16 frames\r\nCodec ID : V_MPEG4/ISO/AVC\r\nDuration : 2 h 20 min\r\nBit rate mode : Variable\r\nBit rate : 630 kb/s\r\nMaximum bit rate : 62.5 Mb/s\r\nWidth : 640 pixels\r\nHeight : 272 pixels\r\nDisplay aspect ratio : 2.35:1\r\nFrame rate mode : Constant\r\nFrame rate : 25.000 FPS\r\nColor space : YUV\r\nChroma subsampling : 4:2:0\r\nBit depth : 8 bits\r\nScan type : Progressive\r\nBits/(Pixel*Frame) : 0.145\r\nStream size : 634 MiB (91%)\r\nDefault : Yes\r\nForced : No\r\nColor range : Limited\r\nColor primaries : BT.601 NTSC\r\nTransfer characteristics : BT.470 System B, BT.470 System G\r\nMatrix coefficients : BT.601\r\n\r\nAudio\r\nFormat : AAC\r\nFormat/Info : Advanced Audio Codec\r\nFormat profile : LC\r\nCodec ID : A_AAC\r\nDuration : 2 h 20 min\r\nBit rate : 63.6 kb/s\r\nChannel(s) : 6 channels\r\nChannel positions : Front: L C R, Side: L R, LFE\r\nSampling rate : 48.0 kHz\r\nFrame rate : 46.875 FPS (1024 spf)\r\nCompression mode : Lossy\r\nDelay relative to video : 9 ms\r\nStream size : 64.0 MiB (9%)\r\nDefault : Yes\r\nForced : No\r\n\r\nSAMPLE Included","torrent":{"xt":"urn:btih:9d71234b017bd36ba5141da1b8ec96ef8672f960","amp;dn":"Baar+Baar+Dekho+%282016%29+1CD+x264+DesiSCR+Rip+AAC+2.0+-DDR","amp;tr":["udp%3A%2F%2Ftracker.leechers-paradise.org%3A6969","udp%3A%2F%2Fzer0day.ch%3A1337","udp%3A%2F%2Fopen.demonii.com%3A1337","udp%3A%2F%2Ftracker.coppersurfer.tk%3A6969","udp%3A%2F%2Fexodus.desync.com%3A6969"],"infoHash":"9d71234b017bd36ba5141da1b8ec96ef8672f960","infoHashBuffer":{"type":"Buffer","data":[157,113,35,75,1,123,211,107,165,20,29,161,184,236,150,239,134,114,249,96]},"announce":[],"urlList":[]}}